G04 #@! TF.GenerationSoftware,KiCad,Pcbnew,(5.1.5)-3*
G04 #@! TF.CreationDate,2020-04-30T10:37:25-04:00*
G04 #@! TF.ProjectId,Smart Outlet Updated,536d6172-7420-44f7-9574-6c6574205570,rev?*
G04 #@! TF.SameCoordinates,PX4ed8d08PY6a57250*
G04 #@! TF.FileFunction,Copper,L2,Bot*
G04 #@! TF.FilePolarity,Positive*
%FSLAX46Y46*%
G04 Gerber Fmt 4.6, Leading zero omitted, Abs format (unit mm)*
G04 Created by KiCad (PCBNEW (5.1.5)-3) date 2020-04-30 10:37:25*
%MOMM*%
%LPD*%
G04 APERTURE LIST*
%ADD10C,0.800000*%
%ADD11C,0.635000*%
%ADD12C,0.508000*%
G04 APERTURE END LIST*
D10*
X12001500Y37846000D03*
X13144500Y37846000D03*
D11*
X32645600Y26702000D03*
X32658300Y20529300D03*
X28600400Y12852400D03*
X32308800Y32867600D03*
X37439600Y37388800D03*
X36068000Y19913600D03*
X40030400Y26974800D03*
X42011600Y22860000D03*
D12*
X32645600Y20542000D02*
X32658300Y20529300D01*
X32645600Y26702000D02*
X32645600Y20542000D01*
X32658300Y20080288D02*
X28600400Y16022388D01*
X32658300Y20529300D02*
X32658300Y20080288D01*
X28600400Y16022388D02*
X28600400Y12852400D01*
X28600400Y12852400D02*
X28600400Y12852400D01*
X32664400Y32512000D02*
X32308800Y32867600D01*
X32645600Y26702000D02*
X32664400Y26720800D01*
X32664400Y26720800D02*
X32664400Y32512000D01*
X36068000Y19913600D02*
X36068000Y19913600D01*
X36068000Y25298400D02*
X36068000Y19913600D01*
X36068000Y36677600D02*
X36068000Y25298400D01*
X37439600Y37388800D02*
X36779200Y37388800D01*
X36779200Y37388800D02*
X36068000Y36677600D01*
X42011600Y24993600D02*
X42011600Y22860000D01*
X40030400Y26974800D02*
X42011600Y24993600D01*
X42011600Y22860000D02*
X42011600Y22860000D01*
M02*
