G04 #@! TF.GenerationSoftware,KiCad,Pcbnew,(5.1.5)-3*
G04 #@! TF.CreationDate,2020-04-30T10:37:25-04:00*
G04 #@! TF.ProjectId,Smart Outlet Updated,536d6172-7420-44f7-9574-6c6574205570,rev?*
G04 #@! TF.SameCoordinates,PX4ed8d08PY6a57250*
G04 #@! TF.FileFunction,Soldermask,Top*
G04 #@! TF.FilePolarity,Negative*
%FSLAX46Y46*%
G04 Gerber Fmt 4.6, Leading zero omitted, Abs format (unit mm)*
G04 Created by KiCad (PCBNEW (5.1.5)-3) date 2020-04-30 10:37:25*
%MOMM*%
%LPD*%
G04 APERTURE LIST*
%ADD10C,0.100000*%
G04 APERTURE END LIST*
D10*
G36*
X13462000Y37528500D02*
G01*
X12827000Y37528500D01*
X12827000Y38163500D01*
X13462000Y38163500D01*
X13462000Y37528500D01*
G37*
X13462000Y37528500D02*
X12827000Y37528500D01*
X12827000Y38163500D01*
X13462000Y38163500D01*
X13462000Y37528500D01*
G36*
X12319000Y37528500D02*
G01*
X11684000Y37528500D01*
X11684000Y38163500D01*
X12319000Y38163500D01*
X12319000Y37528500D01*
G37*
X12319000Y37528500D02*
X11684000Y37528500D01*
X11684000Y38163500D01*
X12319000Y38163500D01*
X12319000Y37528500D01*
G36*
X64897000Y0D02*
G01*
X58801000Y0D01*
X58801000Y39116000D01*
X64897000Y39116000D01*
X64897000Y0D01*
G37*
X64897000Y0D02*
X58801000Y0D01*
X58801000Y39116000D01*
X64897000Y39116000D01*
X64897000Y0D01*
G36*
X28745438Y5067284D02*
G01*
X28766057Y5061029D01*
X28785053Y5050876D01*
X28801708Y5037208D01*
X28815376Y5020553D01*
X28825529Y5001557D01*
X28831784Y4980938D01*
X28834500Y4953360D01*
X28834500Y4444640D01*
X28831784Y4417062D01*
X28825529Y4396443D01*
X28815376Y4377447D01*
X28801708Y4360792D01*
X28785053Y4347124D01*
X28766057Y4336971D01*
X28745438Y4330716D01*
X28717860Y4328000D01*
X28259140Y4328000D01*
X28231562Y4330716D01*
X28210943Y4336971D01*
X28191947Y4347124D01*
X28175292Y4360792D01*
X28161624Y4377447D01*
X28151471Y4396443D01*
X28145216Y4417062D01*
X28142500Y4444640D01*
X28142500Y4953360D01*
X28145216Y4980938D01*
X28151471Y5001557D01*
X28161624Y5020553D01*
X28175292Y5037208D01*
X28191947Y5050876D01*
X28210943Y5061029D01*
X28231562Y5067284D01*
X28259140Y5070000D01*
X28717860Y5070000D01*
X28745438Y5067284D01*
G37*
G36*
X27775438Y5067284D02*
G01*
X27796057Y5061029D01*
X27815053Y5050876D01*
X27831708Y5037208D01*
X27845376Y5020553D01*
X27855529Y5001557D01*
X27861784Y4980938D01*
X27864500Y4953360D01*
X27864500Y4444640D01*
X27861784Y4417062D01*
X27855529Y4396443D01*
X27845376Y4377447D01*
X27831708Y4360792D01*
X27815053Y4347124D01*
X27796057Y4336971D01*
X27775438Y4330716D01*
X27747860Y4328000D01*
X27289140Y4328000D01*
X27261562Y4330716D01*
X27240943Y4336971D01*
X27221947Y4347124D01*
X27205292Y4360792D01*
X27191624Y4377447D01*
X27181471Y4396443D01*
X27175216Y4417062D01*
X27172500Y4444640D01*
X27172500Y4953360D01*
X27175216Y4980938D01*
X27181471Y5001557D01*
X27191624Y5020553D01*
X27205292Y5037208D01*
X27221947Y5050876D01*
X27240943Y5061029D01*
X27261562Y5067284D01*
X27289140Y5070000D01*
X27747860Y5070000D01*
X27775438Y5067284D01*
G37*
G36*
X29529000Y5835000D02*
G01*
X27567000Y5835000D01*
X27567000Y6837000D01*
X29529000Y6837000D01*
X29529000Y5835000D01*
G37*
G36*
X47410000Y6787000D02*
G01*
X45808000Y6787000D01*
X45808000Y8789000D01*
X47410000Y8789000D01*
X47410000Y6787000D01*
G37*
G36*
X44870000Y6787000D02*
G01*
X43268000Y6787000D01*
X43268000Y8789000D01*
X44870000Y8789000D01*
X44870000Y6787000D01*
G37*
G36*
X52490000Y6787000D02*
G01*
X50888000Y6787000D01*
X50888000Y8789000D01*
X52490000Y8789000D01*
X52490000Y6787000D01*
G37*
G36*
X49950000Y6787000D02*
G01*
X48348000Y6787000D01*
X48348000Y8789000D01*
X49950000Y8789000D01*
X49950000Y6787000D01*
G37*
G36*
X35679000Y6990000D02*
G01*
X33717000Y6990000D01*
X33717000Y10282000D01*
X35679000Y10282000D01*
X35679000Y6990000D01*
G37*
G36*
X23522938Y8199784D02*
G01*
X23543557Y8193529D01*
X23562553Y8183376D01*
X23579208Y8169708D01*
X23592876Y8153053D01*
X23603029Y8134057D01*
X23609284Y8113438D01*
X23612000Y8085860D01*
X23612000Y7627140D01*
X23609284Y7599562D01*
X23603029Y7578943D01*
X23592876Y7559947D01*
X23579208Y7543292D01*
X23562553Y7529624D01*
X23543557Y7519471D01*
X23522938Y7513216D01*
X23495360Y7510500D01*
X22986640Y7510500D01*
X22959062Y7513216D01*
X22938443Y7519471D01*
X22919447Y7529624D01*
X22902792Y7543292D01*
X22889124Y7559947D01*
X22878971Y7578943D01*
X22872716Y7599562D01*
X22870000Y7627140D01*
X22870000Y8085860D01*
X22872716Y8113438D01*
X22878971Y8134057D01*
X22889124Y8153053D01*
X22902792Y8169708D01*
X22919447Y8183376D01*
X22938443Y8193529D01*
X22959062Y8199784D01*
X22986640Y8202500D01*
X23495360Y8202500D01*
X23522938Y8199784D01*
G37*
G36*
X29529000Y8135000D02*
G01*
X27567000Y8135000D01*
X27567000Y9137000D01*
X29529000Y9137000D01*
X29529000Y8135000D01*
G37*
G36*
X26238468Y9453935D02*
G01*
X26277138Y9442204D01*
X26312777Y9423154D01*
X26344017Y9397517D01*
X26369654Y9366277D01*
X26388704Y9330638D01*
X26400435Y9291968D01*
X26405000Y9245612D01*
X26405000Y8594388D01*
X26400435Y8548032D01*
X26388704Y8509362D01*
X26369654Y8473723D01*
X26344017Y8442483D01*
X26312777Y8416846D01*
X26277138Y8397796D01*
X26238468Y8386065D01*
X26192112Y8381500D01*
X25115888Y8381500D01*
X25069532Y8386065D01*
X25030862Y8397796D01*
X24995223Y8416846D01*
X24963983Y8442483D01*
X24938346Y8473723D01*
X24919296Y8509362D01*
X24907565Y8548032D01*
X24903000Y8594388D01*
X24903000Y9245612D01*
X24907565Y9291968D01*
X24919296Y9330638D01*
X24938346Y9366277D01*
X24963983Y9397517D01*
X24995223Y9423154D01*
X25030862Y9442204D01*
X25069532Y9453935D01*
X25115888Y9458500D01*
X26192112Y9458500D01*
X26238468Y9453935D01*
G37*
G36*
X23522938Y9169784D02*
G01*
X23543557Y9163529D01*
X23562553Y9153376D01*
X23579208Y9139708D01*
X23592876Y9123053D01*
X23603029Y9104057D01*
X23609284Y9083438D01*
X23612000Y9055860D01*
X23612000Y8597140D01*
X23609284Y8569562D01*
X23603029Y8548943D01*
X23592876Y8529947D01*
X23579208Y8513292D01*
X23562553Y8499624D01*
X23543557Y8489471D01*
X23522938Y8483216D01*
X23495360Y8480500D01*
X22986640Y8480500D01*
X22959062Y8483216D01*
X22938443Y8489471D01*
X22919447Y8499624D01*
X22902792Y8513292D01*
X22889124Y8529947D01*
X22878971Y8548943D01*
X22872716Y8569562D01*
X22870000Y8597140D01*
X22870000Y9055860D01*
X22872716Y9083438D01*
X22878971Y9104057D01*
X22889124Y9123053D01*
X22902792Y9139708D01*
X22919447Y9153376D01*
X22938443Y9163529D01*
X22959062Y9169784D01*
X22986640Y9172500D01*
X23495360Y9172500D01*
X23522938Y9169784D01*
G37*
G36*
X26238468Y11328935D02*
G01*
X26277138Y11317204D01*
X26312777Y11298154D01*
X26344017Y11272517D01*
X26369654Y11241277D01*
X26388704Y11205638D01*
X26400435Y11166968D01*
X26405000Y11120612D01*
X26405000Y10469388D01*
X26400435Y10423032D01*
X26388704Y10384362D01*
X26369654Y10348723D01*
X26344017Y10317483D01*
X26312777Y10291846D01*
X26277138Y10272796D01*
X26238468Y10261065D01*
X26192112Y10256500D01*
X25115888Y10256500D01*
X25069532Y10261065D01*
X25030862Y10272796D01*
X24995223Y10291846D01*
X24963983Y10317483D01*
X24938346Y10348723D01*
X24919296Y10384362D01*
X24907565Y10423032D01*
X24903000Y10469388D01*
X24903000Y11120612D01*
X24907565Y11166968D01*
X24919296Y11205638D01*
X24938346Y11241277D01*
X24963983Y11272517D01*
X24995223Y11298154D01*
X25030862Y11317204D01*
X25069532Y11328935D01*
X25115888Y11333500D01*
X26192112Y11333500D01*
X26238468Y11328935D01*
G37*
G36*
X29529000Y10435000D02*
G01*
X27567000Y10435000D01*
X27567000Y11437000D01*
X29529000Y11437000D01*
X29529000Y10435000D01*
G37*
G36*
X27485338Y13406784D02*
G01*
X27505957Y13400529D01*
X27524953Y13390376D01*
X27541608Y13376708D01*
X27555276Y13360053D01*
X27565429Y13341057D01*
X27571684Y13320438D01*
X27574400Y13292860D01*
X27574400Y12834140D01*
X27571684Y12806562D01*
X27565429Y12785943D01*
X27555276Y12766947D01*
X27541608Y12750292D01*
X27524953Y12736624D01*
X27505957Y12726471D01*
X27485338Y12720216D01*
X27457760Y12717500D01*
X26949040Y12717500D01*
X26921462Y12720216D01*
X26900843Y12726471D01*
X26881847Y12736624D01*
X26865192Y12750292D01*
X26851524Y12766947D01*
X26841371Y12785943D01*
X26835116Y12806562D01*
X26832400Y12834140D01*
X26832400Y13292860D01*
X26835116Y13320438D01*
X26841371Y13341057D01*
X26851524Y13360053D01*
X26865192Y13376708D01*
X26881847Y13390376D01*
X26900843Y13400529D01*
X26921462Y13406784D01*
X26949040Y13409500D01*
X27457760Y13409500D01*
X27485338Y13406784D01*
G37*
G36*
X25961338Y13424284D02*
G01*
X25981957Y13418029D01*
X26000953Y13407876D01*
X26017608Y13394208D01*
X26031276Y13377553D01*
X26041429Y13358557D01*
X26047684Y13337938D01*
X26050400Y13310360D01*
X26050400Y12851640D01*
X26047684Y12824062D01*
X26041429Y12803443D01*
X26031276Y12784447D01*
X26017608Y12767792D01*
X26000953Y12754124D01*
X25981957Y12743971D01*
X25961338Y12737716D01*
X25933760Y12735000D01*
X25425040Y12735000D01*
X25397462Y12737716D01*
X25376843Y12743971D01*
X25357847Y12754124D01*
X25341192Y12767792D01*
X25327524Y12784447D01*
X25317371Y12803443D01*
X25311116Y12824062D01*
X25308400Y12851640D01*
X25308400Y13310360D01*
X25311116Y13337938D01*
X25317371Y13358557D01*
X25327524Y13377553D01*
X25341192Y13394208D01*
X25357847Y13407876D01*
X25376843Y13418029D01*
X25397462Y13424284D01*
X25425040Y13427000D01*
X25933760Y13427000D01*
X25961338Y13424284D01*
G37*
G36*
X27485338Y14376784D02*
G01*
X27505957Y14370529D01*
X27524953Y14360376D01*
X27541608Y14346708D01*
X27555276Y14330053D01*
X27565429Y14311057D01*
X27571684Y14290438D01*
X27574400Y14262860D01*
X27574400Y13804140D01*
X27571684Y13776562D01*
X27565429Y13755943D01*
X27555276Y13736947D01*
X27541608Y13720292D01*
X27524953Y13706624D01*
X27505957Y13696471D01*
X27485338Y13690216D01*
X27457760Y13687500D01*
X26949040Y13687500D01*
X26921462Y13690216D01*
X26900843Y13696471D01*
X26881847Y13706624D01*
X26865192Y13720292D01*
X26851524Y13736947D01*
X26841371Y13755943D01*
X26835116Y13776562D01*
X26832400Y13804140D01*
X26832400Y14262860D01*
X26835116Y14290438D01*
X26841371Y14311057D01*
X26851524Y14330053D01*
X26865192Y14346708D01*
X26881847Y14360376D01*
X26900843Y14370529D01*
X26921462Y14376784D01*
X26949040Y14379500D01*
X27457760Y14379500D01*
X27485338Y14376784D01*
G37*
G36*
X25961338Y14394284D02*
G01*
X25981957Y14388029D01*
X26000953Y14377876D01*
X26017608Y14364208D01*
X26031276Y14347553D01*
X26041429Y14328557D01*
X26047684Y14307938D01*
X26050400Y14280360D01*
X26050400Y13821640D01*
X26047684Y13794062D01*
X26041429Y13773443D01*
X26031276Y13754447D01*
X26017608Y13737792D01*
X26000953Y13724124D01*
X25981957Y13713971D01*
X25961338Y13707716D01*
X25933760Y13705000D01*
X25425040Y13705000D01*
X25397462Y13707716D01*
X25376843Y13713971D01*
X25357847Y13724124D01*
X25341192Y13737792D01*
X25327524Y13754447D01*
X25317371Y13773443D01*
X25311116Y13794062D01*
X25308400Y13821640D01*
X25308400Y14280360D01*
X25311116Y14307938D01*
X25317371Y14328557D01*
X25327524Y14347553D01*
X25341192Y14364208D01*
X25357847Y14377876D01*
X25376843Y14388029D01*
X25397462Y14394284D01*
X25425040Y14397000D01*
X25933760Y14397000D01*
X25961338Y14394284D01*
G37*
G36*
X44870000Y15087000D02*
G01*
X43268000Y15087000D01*
X43268000Y17089000D01*
X44870000Y17089000D01*
X44870000Y15087000D01*
G37*
G36*
X49950000Y15087000D02*
G01*
X48348000Y15087000D01*
X48348000Y17089000D01*
X49950000Y17089000D01*
X49950000Y15087000D01*
G37*
G36*
X52490000Y15087000D02*
G01*
X50888000Y15087000D01*
X50888000Y17089000D01*
X52490000Y17089000D01*
X52490000Y15087000D01*
G37*
G36*
X6394000Y17353000D02*
G01*
X4292000Y17353000D01*
X4292000Y18355000D01*
X6394000Y18355000D01*
X6394000Y17353000D01*
G37*
G36*
X23394000Y17353000D02*
G01*
X21292000Y17353000D01*
X21292000Y18355000D01*
X23394000Y18355000D01*
X23394000Y17353000D01*
G37*
G36*
X53039800Y18350600D02*
G01*
X51037800Y18350600D01*
X51037800Y19952600D01*
X53039800Y19952600D01*
X53039800Y18350600D01*
G37*
G36*
X44739800Y18350600D02*
G01*
X42737800Y18350600D01*
X42737800Y19952600D01*
X44739800Y19952600D01*
X44739800Y18350600D01*
G37*
G36*
X25677991Y19331215D02*
G01*
X25711969Y19320907D01*
X25743290Y19304166D01*
X25770739Y19281639D01*
X25793266Y19254190D01*
X25810007Y19222869D01*
X25820315Y19188891D01*
X25824400Y19147410D01*
X25824400Y18546190D01*
X25820315Y18504709D01*
X25810007Y18470731D01*
X25793266Y18439410D01*
X25770739Y18411961D01*
X25743290Y18389434D01*
X25711969Y18372693D01*
X25677991Y18362385D01*
X25636510Y18358300D01*
X24960290Y18358300D01*
X24918809Y18362385D01*
X24884831Y18372693D01*
X24853510Y18389434D01*
X24826061Y18411961D01*
X24803534Y18439410D01*
X24786793Y18470731D01*
X24776485Y18504709D01*
X24772400Y18546190D01*
X24772400Y19147410D01*
X24776485Y19188891D01*
X24786793Y19222869D01*
X24803534Y19254190D01*
X24826061Y19281639D01*
X24853510Y19304166D01*
X24884831Y19320907D01*
X24918809Y19331215D01*
X24960290Y19335300D01*
X25636510Y19335300D01*
X25677991Y19331215D01*
G37*
G36*
X23394000Y18623000D02*
G01*
X21292000Y18623000D01*
X21292000Y19625000D01*
X23394000Y19625000D01*
X23394000Y18623000D01*
G37*
G36*
X6394000Y18623000D02*
G01*
X4292000Y18623000D01*
X4292000Y19625000D01*
X6394000Y19625000D01*
X6394000Y18623000D01*
G37*
G36*
X29679091Y19952915D02*
G01*
X29713069Y19942607D01*
X29744390Y19925866D01*
X29771839Y19903339D01*
X29794366Y19875890D01*
X29811107Y19844569D01*
X29821415Y19810591D01*
X29825500Y19769110D01*
X29825500Y19092890D01*
X29821415Y19051409D01*
X29811107Y19017431D01*
X29794366Y18986110D01*
X29771839Y18958661D01*
X29744390Y18936134D01*
X29713069Y18919393D01*
X29679091Y18909085D01*
X29637610Y18905000D01*
X29036390Y18905000D01*
X28994909Y18909085D01*
X28960931Y18919393D01*
X28929610Y18936134D01*
X28902161Y18958661D01*
X28879634Y18986110D01*
X28862893Y19017431D01*
X28852585Y19051409D01*
X28848500Y19092890D01*
X28848500Y19769110D01*
X28852585Y19810591D01*
X28862893Y19844569D01*
X28879634Y19875890D01*
X28902161Y19903339D01*
X28929610Y19925866D01*
X28960931Y19942607D01*
X28994909Y19952915D01*
X29036390Y19957000D01*
X29637610Y19957000D01*
X29679091Y19952915D01*
G37*
G36*
X28104091Y19952915D02*
G01*
X28138069Y19942607D01*
X28169390Y19925866D01*
X28196839Y19903339D01*
X28219366Y19875890D01*
X28236107Y19844569D01*
X28246415Y19810591D01*
X28250500Y19769110D01*
X28250500Y19092890D01*
X28246415Y19051409D01*
X28236107Y19017431D01*
X28219366Y18986110D01*
X28196839Y18958661D01*
X28169390Y18936134D01*
X28138069Y18919393D01*
X28104091Y18909085D01*
X28062610Y18905000D01*
X27461390Y18905000D01*
X27419909Y18909085D01*
X27385931Y18919393D01*
X27354610Y18936134D01*
X27327161Y18958661D01*
X27304634Y18986110D01*
X27287893Y19017431D01*
X27277585Y19051409D01*
X27273500Y19092890D01*
X27273500Y19769110D01*
X27277585Y19810591D01*
X27287893Y19844569D01*
X27304634Y19875890D01*
X27327161Y19903339D01*
X27354610Y19925866D01*
X27385931Y19942607D01*
X27419909Y19952915D01*
X27461390Y19957000D01*
X28062610Y19957000D01*
X28104091Y19952915D01*
G37*
G36*
X6394000Y19893000D02*
G01*
X4292000Y19893000D01*
X4292000Y20895000D01*
X6394000Y20895000D01*
X6394000Y19893000D01*
G37*
G36*
X23394000Y19893000D02*
G01*
X21292000Y19893000D01*
X21292000Y20895000D01*
X23394000Y20895000D01*
X23394000Y19893000D01*
G37*
G36*
X25677991Y20906215D02*
G01*
X25711969Y20895907D01*
X25743290Y20879166D01*
X25770739Y20856639D01*
X25793266Y20829190D01*
X25810007Y20797869D01*
X25820315Y20763891D01*
X25824400Y20722410D01*
X25824400Y20121190D01*
X25820315Y20079709D01*
X25810007Y20045731D01*
X25793266Y20014410D01*
X25770739Y19986961D01*
X25743290Y19964434D01*
X25711969Y19947693D01*
X25677991Y19937385D01*
X25636510Y19933300D01*
X24960290Y19933300D01*
X24918809Y19937385D01*
X24884831Y19947693D01*
X24853510Y19964434D01*
X24826061Y19986961D01*
X24803534Y20014410D01*
X24786793Y20045731D01*
X24776485Y20079709D01*
X24772400Y20121190D01*
X24772400Y20722410D01*
X24776485Y20763891D01*
X24786793Y20797869D01*
X24803534Y20829190D01*
X24826061Y20856639D01*
X24853510Y20879166D01*
X24884831Y20895907D01*
X24918809Y20906215D01*
X24960290Y20910300D01*
X25636510Y20910300D01*
X25677991Y20906215D01*
G37*
G36*
X53039800Y20890600D02*
G01*
X51037800Y20890600D01*
X51037800Y22492600D01*
X53039800Y22492600D01*
X53039800Y20890600D01*
G37*
G36*
X44739800Y20890600D02*
G01*
X42737800Y20890600D01*
X42737800Y22492600D01*
X44739800Y22492600D01*
X44739800Y20890600D01*
G37*
G36*
X29806500Y21141500D02*
G01*
X28804500Y21141500D01*
X28804500Y22043500D01*
X29806500Y22043500D01*
X29806500Y21141500D01*
G37*
G36*
X6394000Y21163000D02*
G01*
X4292000Y21163000D01*
X4292000Y22165000D01*
X6394000Y22165000D01*
X6394000Y21163000D01*
G37*
G36*
X23394000Y21163000D02*
G01*
X21292000Y21163000D01*
X21292000Y22165000D01*
X23394000Y22165000D01*
X23394000Y21163000D01*
G37*
G36*
X34904938Y21958284D02*
G01*
X34925557Y21952029D01*
X34944553Y21941876D01*
X34961208Y21928208D01*
X34974876Y21911553D01*
X34985029Y21892557D01*
X34991284Y21871938D01*
X34994000Y21844360D01*
X34994000Y21335640D01*
X34991284Y21308062D01*
X34985029Y21287443D01*
X34974876Y21268447D01*
X34961208Y21251792D01*
X34944553Y21238124D01*
X34925557Y21227971D01*
X34904938Y21221716D01*
X34877360Y21219000D01*
X34418640Y21219000D01*
X34391062Y21221716D01*
X34370443Y21227971D01*
X34351447Y21238124D01*
X34334792Y21251792D01*
X34321124Y21268447D01*
X34310971Y21287443D01*
X34304716Y21308062D01*
X34302000Y21335640D01*
X34302000Y21844360D01*
X34304716Y21871938D01*
X34310971Y21892557D01*
X34321124Y21911553D01*
X34334792Y21928208D01*
X34351447Y21941876D01*
X34370443Y21952029D01*
X34391062Y21958284D01*
X34418640Y21961000D01*
X34877360Y21961000D01*
X34904938Y21958284D01*
G37*
G36*
X33934938Y21958284D02*
G01*
X33955557Y21952029D01*
X33974553Y21941876D01*
X33991208Y21928208D01*
X34004876Y21911553D01*
X34015029Y21892557D01*
X34021284Y21871938D01*
X34024000Y21844360D01*
X34024000Y21335640D01*
X34021284Y21308062D01*
X34015029Y21287443D01*
X34004876Y21268447D01*
X33991208Y21251792D01*
X33974553Y21238124D01*
X33955557Y21227971D01*
X33934938Y21221716D01*
X33907360Y21219000D01*
X33448640Y21219000D01*
X33421062Y21221716D01*
X33400443Y21227971D01*
X33381447Y21238124D01*
X33364792Y21251792D01*
X33351124Y21268447D01*
X33340971Y21287443D01*
X33334716Y21308062D01*
X33332000Y21335640D01*
X33332000Y21844360D01*
X33334716Y21871938D01*
X33340971Y21892557D01*
X33351124Y21911553D01*
X33364792Y21928208D01*
X33381447Y21941876D01*
X33400443Y21952029D01*
X33421062Y21958284D01*
X33448640Y21961000D01*
X33907360Y21961000D01*
X33934938Y21958284D01*
G37*
G36*
X31806500Y22091500D02*
G01*
X30804500Y22091500D01*
X30804500Y22993500D01*
X31806500Y22993500D01*
X31806500Y22091500D01*
G37*
G36*
X6394000Y22433000D02*
G01*
X4292000Y22433000D01*
X4292000Y23435000D01*
X6394000Y23435000D01*
X6394000Y22433000D01*
G37*
G36*
X23394000Y22433000D02*
G01*
X21292000Y22433000D01*
X21292000Y23435000D01*
X23394000Y23435000D01*
X23394000Y22433000D01*
G37*
G36*
X17394000Y22803000D02*
G01*
X12292000Y22803000D01*
X12292000Y27905000D01*
X17394000Y27905000D01*
X17394000Y22803000D01*
G37*
G36*
X29806500Y23041500D02*
G01*
X28804500Y23041500D01*
X28804500Y23943500D01*
X29806500Y23943500D01*
X29806500Y23041500D01*
G37*
G36*
X34904938Y23990284D02*
G01*
X34925557Y23984029D01*
X34944553Y23973876D01*
X34961208Y23960208D01*
X34974876Y23943553D01*
X34985029Y23924557D01*
X34991284Y23903938D01*
X34994000Y23876360D01*
X34994000Y23367640D01*
X34991284Y23340062D01*
X34985029Y23319443D01*
X34974876Y23300447D01*
X34961208Y23283792D01*
X34944553Y23270124D01*
X34925557Y23259971D01*
X34904938Y23253716D01*
X34877360Y23251000D01*
X34418640Y23251000D01*
X34391062Y23253716D01*
X34370443Y23259971D01*
X34351447Y23270124D01*
X34334792Y23283792D01*
X34321124Y23300447D01*
X34310971Y23319443D01*
X34304716Y23340062D01*
X34302000Y23367640D01*
X34302000Y23876360D01*
X34304716Y23903938D01*
X34310971Y23924557D01*
X34321124Y23943553D01*
X34334792Y23960208D01*
X34351447Y23973876D01*
X34370443Y23984029D01*
X34391062Y23990284D01*
X34418640Y23993000D01*
X34877360Y23993000D01*
X34904938Y23990284D01*
G37*
G36*
X33934938Y23990284D02*
G01*
X33955557Y23984029D01*
X33974553Y23973876D01*
X33991208Y23960208D01*
X34004876Y23943553D01*
X34015029Y23924557D01*
X34021284Y23903938D01*
X34024000Y23876360D01*
X34024000Y23367640D01*
X34021284Y23340062D01*
X34015029Y23319443D01*
X34004876Y23300447D01*
X33991208Y23283792D01*
X33974553Y23270124D01*
X33955557Y23259971D01*
X33934938Y23253716D01*
X33907360Y23251000D01*
X33448640Y23251000D01*
X33421062Y23253716D01*
X33400443Y23259971D01*
X33381447Y23270124D01*
X33364792Y23283792D01*
X33351124Y23300447D01*
X33340971Y23319443D01*
X33334716Y23340062D01*
X33332000Y23367640D01*
X33332000Y23876360D01*
X33334716Y23903938D01*
X33340971Y23924557D01*
X33351124Y23943553D01*
X33364792Y23960208D01*
X33381447Y23973876D01*
X33400443Y23984029D01*
X33421062Y23990284D01*
X33448640Y23993000D01*
X33907360Y23993000D01*
X33934938Y23990284D01*
G37*
G36*
X44739800Y23430600D02*
G01*
X42737800Y23430600D01*
X42737800Y25032600D01*
X44739800Y25032600D01*
X44739800Y23430600D01*
G37*
G36*
X23394000Y23703000D02*
G01*
X21292000Y23703000D01*
X21292000Y24705000D01*
X23394000Y24705000D01*
X23394000Y23703000D01*
G37*
G36*
X6394000Y23703000D02*
G01*
X4292000Y23703000D01*
X4292000Y24705000D01*
X6394000Y24705000D01*
X6394000Y23703000D01*
G37*
G36*
X24856438Y24559784D02*
G01*
X24877057Y24553529D01*
X24896053Y24543376D01*
X24912708Y24529708D01*
X24926376Y24513053D01*
X24936529Y24494057D01*
X24942784Y24473438D01*
X24945500Y24445860D01*
X24945500Y23987140D01*
X24942784Y23959562D01*
X24936529Y23938943D01*
X24926376Y23919947D01*
X24912708Y23903292D01*
X24896053Y23889624D01*
X24877057Y23879471D01*
X24856438Y23873216D01*
X24828860Y23870500D01*
X24320140Y23870500D01*
X24292562Y23873216D01*
X24271943Y23879471D01*
X24252947Y23889624D01*
X24236292Y23903292D01*
X24222624Y23919947D01*
X24212471Y23938943D01*
X24206216Y23959562D01*
X24203500Y23987140D01*
X24203500Y24445860D01*
X24206216Y24473438D01*
X24212471Y24494057D01*
X24222624Y24513053D01*
X24236292Y24529708D01*
X24252947Y24543376D01*
X24271943Y24553529D01*
X24292562Y24559784D01*
X24320140Y24562500D01*
X24828860Y24562500D01*
X24856438Y24559784D01*
G37*
G36*
X24856438Y25529784D02*
G01*
X24877057Y25523529D01*
X24896053Y25513376D01*
X24912708Y25499708D01*
X24926376Y25483053D01*
X24936529Y25464057D01*
X24942784Y25443438D01*
X24945500Y25415860D01*
X24945500Y24957140D01*
X24942784Y24929562D01*
X24936529Y24908943D01*
X24926376Y24889947D01*
X24912708Y24873292D01*
X24896053Y24859624D01*
X24877057Y24849471D01*
X24856438Y24843216D01*
X24828860Y24840500D01*
X24320140Y24840500D01*
X24292562Y24843216D01*
X24271943Y24849471D01*
X24252947Y24859624D01*
X24236292Y24873292D01*
X24222624Y24889947D01*
X24212471Y24908943D01*
X24206216Y24929562D01*
X24203500Y24957140D01*
X24203500Y25415860D01*
X24206216Y25443438D01*
X24212471Y25464057D01*
X24222624Y25483053D01*
X24236292Y25499708D01*
X24252947Y25513376D01*
X24271943Y25523529D01*
X24292562Y25529784D01*
X24320140Y25532500D01*
X24828860Y25532500D01*
X24856438Y25529784D01*
G37*
G36*
X6394000Y24973000D02*
G01*
X4292000Y24973000D01*
X4292000Y25975000D01*
X6394000Y25975000D01*
X6394000Y24973000D01*
G37*
G36*
X23394000Y24973000D02*
G01*
X21292000Y24973000D01*
X21292000Y25975000D01*
X23394000Y25975000D01*
X23394000Y24973000D01*
G37*
G36*
X28002591Y26112415D02*
G01*
X28036569Y26102107D01*
X28067890Y26085366D01*
X28095339Y26062839D01*
X28117866Y26035390D01*
X28134607Y26004069D01*
X28144915Y25970091D01*
X28149000Y25928610D01*
X28149000Y25252390D01*
X28144915Y25210909D01*
X28134607Y25176931D01*
X28117866Y25145610D01*
X28095339Y25118161D01*
X28067890Y25095634D01*
X28036569Y25078893D01*
X28002591Y25068585D01*
X27961110Y25064500D01*
X27359890Y25064500D01*
X27318409Y25068585D01*
X27284431Y25078893D01*
X27253110Y25095634D01*
X27225661Y25118161D01*
X27203134Y25145610D01*
X27186393Y25176931D01*
X27176085Y25210909D01*
X27172000Y25252390D01*
X27172000Y25928610D01*
X27176085Y25970091D01*
X27186393Y26004069D01*
X27203134Y26035390D01*
X27225661Y26062839D01*
X27253110Y26085366D01*
X27284431Y26102107D01*
X27318409Y26112415D01*
X27359890Y26116500D01*
X27961110Y26116500D01*
X28002591Y26112415D01*
G37*
G36*
X29577591Y26112415D02*
G01*
X29611569Y26102107D01*
X29642890Y26085366D01*
X29670339Y26062839D01*
X29692866Y26035390D01*
X29709607Y26004069D01*
X29719915Y25970091D01*
X29724000Y25928610D01*
X29724000Y25252390D01*
X29719915Y25210909D01*
X29709607Y25176931D01*
X29692866Y25145610D01*
X29670339Y25118161D01*
X29642890Y25095634D01*
X29611569Y25078893D01*
X29577591Y25068585D01*
X29536110Y25064500D01*
X28934890Y25064500D01*
X28893409Y25068585D01*
X28859431Y25078893D01*
X28828110Y25095634D01*
X28800661Y25118161D01*
X28778134Y25145610D01*
X28761393Y25176931D01*
X28751085Y25210909D01*
X28747000Y25252390D01*
X28747000Y25928610D01*
X28751085Y25970091D01*
X28761393Y26004069D01*
X28778134Y26035390D01*
X28800661Y26062839D01*
X28828110Y26085366D01*
X28859431Y26102107D01*
X28893409Y26112415D01*
X28934890Y26116500D01*
X29536110Y26116500D01*
X29577591Y26112415D01*
G37*
G36*
X53039800Y25970600D02*
G01*
X51037800Y25970600D01*
X51037800Y27572600D01*
X53039800Y27572600D01*
X53039800Y25970600D01*
G37*
G36*
X44739800Y25970600D02*
G01*
X42737800Y25970600D01*
X42737800Y27572600D01*
X44739800Y27572600D01*
X44739800Y25970600D01*
G37*
G36*
X23394000Y26243000D02*
G01*
X21292000Y26243000D01*
X21292000Y27245000D01*
X23394000Y27245000D01*
X23394000Y26243000D01*
G37*
G36*
X6394000Y26243000D02*
G01*
X4292000Y26243000D01*
X4292000Y27245000D01*
X6394000Y27245000D01*
X6394000Y26243000D01*
G37*
G36*
X25935938Y27440284D02*
G01*
X25956557Y27434029D01*
X25975553Y27423876D01*
X25992208Y27410208D01*
X26005876Y27393553D01*
X26016029Y27374557D01*
X26022284Y27353938D01*
X26025000Y27326360D01*
X26025000Y26867640D01*
X26022284Y26840062D01*
X26016029Y26819443D01*
X26005876Y26800447D01*
X25992208Y26783792D01*
X25975553Y26770124D01*
X25956557Y26759971D01*
X25935938Y26753716D01*
X25908360Y26751000D01*
X25399640Y26751000D01*
X25372062Y26753716D01*
X25351443Y26759971D01*
X25332447Y26770124D01*
X25315792Y26783792D01*
X25302124Y26800447D01*
X25291971Y26819443D01*
X25285716Y26840062D01*
X25283000Y26867640D01*
X25283000Y27326360D01*
X25285716Y27353938D01*
X25291971Y27374557D01*
X25302124Y27393553D01*
X25315792Y27410208D01*
X25332447Y27423876D01*
X25351443Y27434029D01*
X25372062Y27440284D01*
X25399640Y27443000D01*
X25908360Y27443000D01*
X25935938Y27440284D01*
G37*
G36*
X29743000Y27367000D02*
G01*
X28741000Y27367000D01*
X28741000Y28269000D01*
X29743000Y28269000D01*
X29743000Y27367000D01*
G37*
G36*
X33957938Y28117784D02*
G01*
X33978557Y28111529D01*
X33997553Y28101376D01*
X34014208Y28087708D01*
X34027876Y28071053D01*
X34038029Y28052057D01*
X34044284Y28031438D01*
X34047000Y28003860D01*
X34047000Y27495140D01*
X34044284Y27467562D01*
X34038029Y27446943D01*
X34027876Y27427947D01*
X34014208Y27411292D01*
X33997553Y27397624D01*
X33978557Y27387471D01*
X33957938Y27381216D01*
X33930360Y27378500D01*
X33471640Y27378500D01*
X33444062Y27381216D01*
X33423443Y27387471D01*
X33404447Y27397624D01*
X33387792Y27411292D01*
X33374124Y27427947D01*
X33363971Y27446943D01*
X33357716Y27467562D01*
X33355000Y27495140D01*
X33355000Y28003860D01*
X33357716Y28031438D01*
X33363971Y28052057D01*
X33374124Y28071053D01*
X33387792Y28087708D01*
X33404447Y28101376D01*
X33423443Y28111529D01*
X33444062Y28117784D01*
X33471640Y28120500D01*
X33930360Y28120500D01*
X33957938Y28117784D01*
G37*
G36*
X34927938Y28117784D02*
G01*
X34948557Y28111529D01*
X34967553Y28101376D01*
X34984208Y28087708D01*
X34997876Y28071053D01*
X35008029Y28052057D01*
X35014284Y28031438D01*
X35017000Y28003860D01*
X35017000Y27495140D01*
X35014284Y27467562D01*
X35008029Y27446943D01*
X34997876Y27427947D01*
X34984208Y27411292D01*
X34967553Y27397624D01*
X34948557Y27387471D01*
X34927938Y27381216D01*
X34900360Y27378500D01*
X34441640Y27378500D01*
X34414062Y27381216D01*
X34393443Y27387471D01*
X34374447Y27397624D01*
X34357792Y27411292D01*
X34344124Y27427947D01*
X34333971Y27446943D01*
X34327716Y27467562D01*
X34325000Y27495140D01*
X34325000Y28003860D01*
X34327716Y28031438D01*
X34333971Y28052057D01*
X34344124Y28071053D01*
X34357792Y28087708D01*
X34374447Y28101376D01*
X34393443Y28111529D01*
X34414062Y28117784D01*
X34441640Y28120500D01*
X34900360Y28120500D01*
X34927938Y28117784D01*
G37*
G36*
X23394000Y27513000D02*
G01*
X21292000Y27513000D01*
X21292000Y28515000D01*
X23394000Y28515000D01*
X23394000Y27513000D01*
G37*
G36*
X6394000Y27513000D02*
G01*
X4292000Y27513000D01*
X4292000Y28515000D01*
X6394000Y28515000D01*
X6394000Y27513000D01*
G37*
G36*
X25935938Y28410284D02*
G01*
X25956557Y28404029D01*
X25975553Y28393876D01*
X25992208Y28380208D01*
X26005876Y28363553D01*
X26016029Y28344557D01*
X26022284Y28323938D01*
X26025000Y28296360D01*
X26025000Y27837640D01*
X26022284Y27810062D01*
X26016029Y27789443D01*
X26005876Y27770447D01*
X25992208Y27753792D01*
X25975553Y27740124D01*
X25956557Y27729971D01*
X25935938Y27723716D01*
X25908360Y27721000D01*
X25399640Y27721000D01*
X25372062Y27723716D01*
X25351443Y27729971D01*
X25332447Y27740124D01*
X25315792Y27753792D01*
X25302124Y27770447D01*
X25291971Y27789443D01*
X25285716Y27810062D01*
X25283000Y27837640D01*
X25283000Y28296360D01*
X25285716Y28323938D01*
X25291971Y28344557D01*
X25302124Y28363553D01*
X25315792Y28380208D01*
X25332447Y28393876D01*
X25351443Y28404029D01*
X25372062Y28410284D01*
X25399640Y28413000D01*
X25908360Y28413000D01*
X25935938Y28410284D01*
G37*
G36*
X31743000Y28317000D02*
G01*
X30741000Y28317000D01*
X30741000Y29219000D01*
X31743000Y29219000D01*
X31743000Y28317000D01*
G37*
G36*
X44730000Y28764600D02*
G01*
X42728000Y28764600D01*
X42728000Y30366600D01*
X44730000Y30366600D01*
X44730000Y28764600D01*
G37*
G36*
X53030000Y28764600D02*
G01*
X51028000Y28764600D01*
X51028000Y30366600D01*
X53030000Y30366600D01*
X53030000Y28764600D01*
G37*
G36*
X23394000Y28783000D02*
G01*
X21292000Y28783000D01*
X21292000Y29785000D01*
X23394000Y29785000D01*
X23394000Y28783000D01*
G37*
G36*
X6394000Y28783000D02*
G01*
X4292000Y28783000D01*
X4292000Y29785000D01*
X6394000Y29785000D01*
X6394000Y28783000D01*
G37*
G36*
X29743000Y29267000D02*
G01*
X28741000Y29267000D01*
X28741000Y30169000D01*
X29743000Y30169000D01*
X29743000Y29267000D01*
G37*
G36*
X34927938Y30276784D02*
G01*
X34948557Y30270529D01*
X34967553Y30260376D01*
X34984208Y30246708D01*
X34997876Y30230053D01*
X35008029Y30211057D01*
X35014284Y30190438D01*
X35017000Y30162860D01*
X35017000Y29654140D01*
X35014284Y29626562D01*
X35008029Y29605943D01*
X34997876Y29586947D01*
X34984208Y29570292D01*
X34967553Y29556624D01*
X34948557Y29546471D01*
X34927938Y29540216D01*
X34900360Y29537500D01*
X34441640Y29537500D01*
X34414062Y29540216D01*
X34393443Y29546471D01*
X34374447Y29556624D01*
X34357792Y29570292D01*
X34344124Y29586947D01*
X34333971Y29605943D01*
X34327716Y29626562D01*
X34325000Y29654140D01*
X34325000Y30162860D01*
X34327716Y30190438D01*
X34333971Y30211057D01*
X34344124Y30230053D01*
X34357792Y30246708D01*
X34374447Y30260376D01*
X34393443Y30270529D01*
X34414062Y30276784D01*
X34441640Y30279500D01*
X34900360Y30279500D01*
X34927938Y30276784D01*
G37*
G36*
X33957938Y30276784D02*
G01*
X33978557Y30270529D01*
X33997553Y30260376D01*
X34014208Y30246708D01*
X34027876Y30230053D01*
X34038029Y30211057D01*
X34044284Y30190438D01*
X34047000Y30162860D01*
X34047000Y29654140D01*
X34044284Y29626562D01*
X34038029Y29605943D01*
X34027876Y29586947D01*
X34014208Y29570292D01*
X33997553Y29556624D01*
X33978557Y29546471D01*
X33957938Y29540216D01*
X33930360Y29537500D01*
X33471640Y29537500D01*
X33444062Y29540216D01*
X33423443Y29546471D01*
X33404447Y29556624D01*
X33387792Y29570292D01*
X33374124Y29586947D01*
X33363971Y29605943D01*
X33357716Y29626562D01*
X33355000Y29654140D01*
X33355000Y30162860D01*
X33357716Y30190438D01*
X33363971Y30211057D01*
X33374124Y30230053D01*
X33387792Y30246708D01*
X33404447Y30260376D01*
X33423443Y30270529D01*
X33444062Y30276784D01*
X33471640Y30279500D01*
X33930360Y30279500D01*
X33957938Y30276784D01*
G37*
G36*
X25427938Y30274784D02*
G01*
X25448557Y30268529D01*
X25467553Y30258376D01*
X25484208Y30244708D01*
X25497876Y30228053D01*
X25508029Y30209057D01*
X25514284Y30188438D01*
X25517000Y30160860D01*
X25517000Y29702140D01*
X25514284Y29674562D01*
X25508029Y29653943D01*
X25497876Y29634947D01*
X25484208Y29618292D01*
X25467553Y29604624D01*
X25448557Y29594471D01*
X25427938Y29588216D01*
X25400360Y29585500D01*
X24891640Y29585500D01*
X24864062Y29588216D01*
X24843443Y29594471D01*
X24824447Y29604624D01*
X24807792Y29618292D01*
X24794124Y29634947D01*
X24783971Y29653943D01*
X24777716Y29674562D01*
X24775000Y29702140D01*
X24775000Y30160860D01*
X24777716Y30188438D01*
X24783971Y30209057D01*
X24794124Y30228053D01*
X24807792Y30244708D01*
X24824447Y30258376D01*
X24843443Y30268529D01*
X24864062Y30274784D01*
X24891640Y30277500D01*
X25400360Y30277500D01*
X25427938Y30274784D01*
G37*
G36*
X6394000Y30053000D02*
G01*
X4292000Y30053000D01*
X4292000Y31055000D01*
X6394000Y31055000D01*
X6394000Y30053000D01*
G37*
G36*
X23394000Y30053000D02*
G01*
X21292000Y30053000D01*
X21292000Y31055000D01*
X23394000Y31055000D01*
X23394000Y30053000D01*
G37*
G36*
X25427938Y31244784D02*
G01*
X25448557Y31238529D01*
X25467553Y31228376D01*
X25484208Y31214708D01*
X25497876Y31198053D01*
X25508029Y31179057D01*
X25514284Y31158438D01*
X25517000Y31130860D01*
X25517000Y30672140D01*
X25514284Y30644562D01*
X25508029Y30623943D01*
X25497876Y30604947D01*
X25484208Y30588292D01*
X25467553Y30574624D01*
X25448557Y30564471D01*
X25427938Y30558216D01*
X25400360Y30555500D01*
X24891640Y30555500D01*
X24864062Y30558216D01*
X24843443Y30564471D01*
X24824447Y30574624D01*
X24807792Y30588292D01*
X24794124Y30604947D01*
X24783971Y30623943D01*
X24777716Y30644562D01*
X24775000Y30672140D01*
X24775000Y31130860D01*
X24777716Y31158438D01*
X24783971Y31179057D01*
X24794124Y31198053D01*
X24807792Y31214708D01*
X24824447Y31228376D01*
X24843443Y31238529D01*
X24864062Y31244784D01*
X24891640Y31247500D01*
X25400360Y31247500D01*
X25427938Y31244784D01*
G37*
G36*
X53030000Y31304600D02*
G01*
X51028000Y31304600D01*
X51028000Y32906600D01*
X53030000Y32906600D01*
X53030000Y31304600D01*
G37*
G36*
X44730000Y31304600D02*
G01*
X42728000Y31304600D01*
X42728000Y32906600D01*
X44730000Y32906600D01*
X44730000Y31304600D01*
G37*
G36*
X6394000Y31323000D02*
G01*
X4292000Y31323000D01*
X4292000Y32325000D01*
X6394000Y32325000D01*
X6394000Y31323000D01*
G37*
G36*
X23394000Y31323000D02*
G01*
X21292000Y31323000D01*
X21292000Y32325000D01*
X23394000Y32325000D01*
X23394000Y31323000D01*
G37*
G36*
X27977091Y32462415D02*
G01*
X28011069Y32452107D01*
X28042390Y32435366D01*
X28069839Y32412839D01*
X28092366Y32385390D01*
X28109107Y32354069D01*
X28119415Y32320091D01*
X28123500Y32278610D01*
X28123500Y31602390D01*
X28119415Y31560909D01*
X28109107Y31526931D01*
X28092366Y31495610D01*
X28069839Y31468161D01*
X28042390Y31445634D01*
X28011069Y31428893D01*
X27977091Y31418585D01*
X27935610Y31414500D01*
X27334390Y31414500D01*
X27292909Y31418585D01*
X27258931Y31428893D01*
X27227610Y31445634D01*
X27200161Y31468161D01*
X27177634Y31495610D01*
X27160893Y31526931D01*
X27150585Y31560909D01*
X27146500Y31602390D01*
X27146500Y32278610D01*
X27150585Y32320091D01*
X27160893Y32354069D01*
X27177634Y32385390D01*
X27200161Y32412839D01*
X27227610Y32435366D01*
X27258931Y32452107D01*
X27292909Y32462415D01*
X27334390Y32466500D01*
X27935610Y32466500D01*
X27977091Y32462415D01*
G37*
G36*
X29552091Y32462415D02*
G01*
X29586069Y32452107D01*
X29617390Y32435366D01*
X29644839Y32412839D01*
X29667366Y32385390D01*
X29684107Y32354069D01*
X29694415Y32320091D01*
X29698500Y32278610D01*
X29698500Y31602390D01*
X29694415Y31560909D01*
X29684107Y31526931D01*
X29667366Y31495610D01*
X29644839Y31468161D01*
X29617390Y31445634D01*
X29586069Y31428893D01*
X29552091Y31418585D01*
X29510610Y31414500D01*
X28909390Y31414500D01*
X28867909Y31418585D01*
X28833931Y31428893D01*
X28802610Y31445634D01*
X28775161Y31468161D01*
X28752634Y31495610D01*
X28735893Y31526931D01*
X28725585Y31560909D01*
X28721500Y31602390D01*
X28721500Y32278610D01*
X28725585Y32320091D01*
X28735893Y32354069D01*
X28752634Y32385390D01*
X28775161Y32412839D01*
X28802610Y32435366D01*
X28833931Y32452107D01*
X28867909Y32462415D01*
X28909390Y32466500D01*
X29510610Y32466500D01*
X29552091Y32462415D01*
G37*
G36*
X23394000Y32593000D02*
G01*
X21292000Y32593000D01*
X21292000Y33595000D01*
X23394000Y33595000D01*
X23394000Y32593000D01*
G37*
G36*
X6394000Y32593000D02*
G01*
X4292000Y32593000D01*
X4292000Y33595000D01*
X6394000Y33595000D01*
X6394000Y32593000D01*
G37*
G36*
X34927938Y34213784D02*
G01*
X34948557Y34207529D01*
X34967553Y34197376D01*
X34984208Y34183708D01*
X34997876Y34167053D01*
X35008029Y34148057D01*
X35014284Y34127438D01*
X35017000Y34099860D01*
X35017000Y33591140D01*
X35014284Y33563562D01*
X35008029Y33542943D01*
X34997876Y33523947D01*
X34984208Y33507292D01*
X34967553Y33493624D01*
X34948557Y33483471D01*
X34927938Y33477216D01*
X34900360Y33474500D01*
X34441640Y33474500D01*
X34414062Y33477216D01*
X34393443Y33483471D01*
X34374447Y33493624D01*
X34357792Y33507292D01*
X34344124Y33523947D01*
X34333971Y33542943D01*
X34327716Y33563562D01*
X34325000Y33591140D01*
X34325000Y34099860D01*
X34327716Y34127438D01*
X34333971Y34148057D01*
X34344124Y34167053D01*
X34357792Y34183708D01*
X34374447Y34197376D01*
X34393443Y34207529D01*
X34414062Y34213784D01*
X34441640Y34216500D01*
X34900360Y34216500D01*
X34927938Y34213784D01*
G37*
G36*
X33957938Y34213784D02*
G01*
X33978557Y34207529D01*
X33997553Y34197376D01*
X34014208Y34183708D01*
X34027876Y34167053D01*
X34038029Y34148057D01*
X34044284Y34127438D01*
X34047000Y34099860D01*
X34047000Y33591140D01*
X34044284Y33563562D01*
X34038029Y33542943D01*
X34027876Y33523947D01*
X34014208Y33507292D01*
X33997553Y33493624D01*
X33978557Y33483471D01*
X33957938Y33477216D01*
X33930360Y33474500D01*
X33471640Y33474500D01*
X33444062Y33477216D01*
X33423443Y33483471D01*
X33404447Y33493624D01*
X33387792Y33507292D01*
X33374124Y33523947D01*
X33363971Y33542943D01*
X33357716Y33563562D01*
X33355000Y33591140D01*
X33355000Y34099860D01*
X33357716Y34127438D01*
X33363971Y34148057D01*
X33374124Y34167053D01*
X33387792Y34183708D01*
X33404447Y34197376D01*
X33423443Y34207529D01*
X33444062Y34213784D01*
X33471640Y34216500D01*
X33930360Y34216500D01*
X33957938Y34213784D01*
G37*
G36*
X29711000Y33585000D02*
G01*
X28709000Y33585000D01*
X28709000Y34487000D01*
X29711000Y34487000D01*
X29711000Y33585000D01*
G37*
G36*
X44730000Y33844600D02*
G01*
X42728000Y33844600D01*
X42728000Y35446600D01*
X44730000Y35446600D01*
X44730000Y33844600D01*
G37*
G36*
X6394000Y33863000D02*
G01*
X4292000Y33863000D01*
X4292000Y34865000D01*
X6394000Y34865000D01*
X6394000Y33863000D01*
G37*
G36*
X23394000Y33863000D02*
G01*
X21292000Y33863000D01*
X21292000Y34865000D01*
X23394000Y34865000D01*
X23394000Y33863000D01*
G37*
G36*
X12439000Y34313000D02*
G01*
X11437000Y34313000D01*
X11437000Y36415000D01*
X12439000Y36415000D01*
X12439000Y34313000D01*
G37*
G36*
X20059000Y34313000D02*
G01*
X19057000Y34313000D01*
X19057000Y36415000D01*
X20059000Y36415000D01*
X20059000Y34313000D01*
G37*
G36*
X18789000Y34313000D02*
G01*
X17787000Y34313000D01*
X17787000Y36415000D01*
X18789000Y36415000D01*
X18789000Y34313000D01*
G37*
G36*
X17519000Y34313000D02*
G01*
X16517000Y34313000D01*
X16517000Y36415000D01*
X17519000Y36415000D01*
X17519000Y34313000D01*
G37*
G36*
X16249000Y34313000D02*
G01*
X15247000Y34313000D01*
X15247000Y36415000D01*
X16249000Y36415000D01*
X16249000Y34313000D01*
G37*
G36*
X8629000Y34313000D02*
G01*
X7627000Y34313000D01*
X7627000Y36415000D01*
X8629000Y36415000D01*
X8629000Y34313000D01*
G37*
G36*
X9899000Y34313000D02*
G01*
X8897000Y34313000D01*
X8897000Y36415000D01*
X9899000Y36415000D01*
X9899000Y34313000D01*
G37*
G36*
X11169000Y34313000D02*
G01*
X10167000Y34313000D01*
X10167000Y36415000D01*
X11169000Y36415000D01*
X11169000Y34313000D01*
G37*
G36*
X13709000Y34313000D02*
G01*
X12707000Y34313000D01*
X12707000Y36415000D01*
X13709000Y36415000D01*
X13709000Y34313000D01*
G37*
G36*
X14979000Y34313000D02*
G01*
X13977000Y34313000D01*
X13977000Y36415000D01*
X14979000Y36415000D01*
X14979000Y34313000D01*
G37*
G36*
X31711000Y34535000D02*
G01*
X30709000Y34535000D01*
X30709000Y35437000D01*
X31711000Y35437000D01*
X31711000Y34535000D01*
G37*
G36*
X29711000Y35485000D02*
G01*
X28709000Y35485000D01*
X28709000Y36387000D01*
X29711000Y36387000D01*
X29711000Y35485000D01*
G37*
G36*
X33934938Y36436284D02*
G01*
X33955557Y36430029D01*
X33974553Y36419876D01*
X33991208Y36406208D01*
X34004876Y36389553D01*
X34015029Y36370557D01*
X34021284Y36349938D01*
X34024000Y36322360D01*
X34024000Y35813640D01*
X34021284Y35786062D01*
X34015029Y35765443D01*
X34004876Y35746447D01*
X33991208Y35729792D01*
X33974553Y35716124D01*
X33955557Y35705971D01*
X33934938Y35699716D01*
X33907360Y35697000D01*
X33448640Y35697000D01*
X33421062Y35699716D01*
X33400443Y35705971D01*
X33381447Y35716124D01*
X33364792Y35729792D01*
X33351124Y35746447D01*
X33340971Y35765443D01*
X33334716Y35786062D01*
X33332000Y35813640D01*
X33332000Y36322360D01*
X33334716Y36349938D01*
X33340971Y36370557D01*
X33351124Y36389553D01*
X33364792Y36406208D01*
X33381447Y36419876D01*
X33400443Y36430029D01*
X33421062Y36436284D01*
X33448640Y36439000D01*
X33907360Y36439000D01*
X33934938Y36436284D01*
G37*
G36*
X34904938Y36436284D02*
G01*
X34925557Y36430029D01*
X34944553Y36419876D01*
X34961208Y36406208D01*
X34974876Y36389553D01*
X34985029Y36370557D01*
X34991284Y36349938D01*
X34994000Y36322360D01*
X34994000Y35813640D01*
X34991284Y35786062D01*
X34985029Y35765443D01*
X34974876Y35746447D01*
X34961208Y35729792D01*
X34944553Y35716124D01*
X34925557Y35705971D01*
X34904938Y35699716D01*
X34877360Y35697000D01*
X34418640Y35697000D01*
X34391062Y35699716D01*
X34370443Y35705971D01*
X34351447Y35716124D01*
X34334792Y35729792D01*
X34321124Y35746447D01*
X34310971Y35765443D01*
X34304716Y35786062D01*
X34302000Y35813640D01*
X34302000Y36322360D01*
X34304716Y36349938D01*
X34310971Y36370557D01*
X34321124Y36389553D01*
X34334792Y36406208D01*
X34351447Y36419876D01*
X34370443Y36430029D01*
X34391062Y36436284D01*
X34418640Y36439000D01*
X34877360Y36439000D01*
X34904938Y36436284D01*
G37*
G36*
X44730000Y36384600D02*
G01*
X42728000Y36384600D01*
X42728000Y37986600D01*
X44730000Y37986600D01*
X44730000Y36384600D01*
G37*
G36*
X53030000Y36384600D02*
G01*
X51028000Y36384600D01*
X51028000Y37986600D01*
X53030000Y37986600D01*
X53030000Y36384600D01*
G37*
M02*
